<?xml version="1.0" encoding="iso-8859-1"?>
<!-- Generator: Adobe Illustrator 16.0.0, SVG Export Plug-In . SVG Version: 6.00 Build 0)  -->
<!DOCTYPE svg PUBLIC "-//W3C//DTD SVG 1.1//EN" "http://www.w3.org/Graphics/SVG/1.1/DTD/svg11.dtd">
<svg version="1.1" id="Capa_1" xmlns="http://www.w3.org/2000/svg" xmlns:xlink="http://www.w3.org/1999/xlink" x="0px" y="0px"
	 width="473.36px" height="473.36px" viewBox="0 0 473.36 473.36" style="enable-background:new 0 0 473.36 473.36;"
	 xml:space="preserve">
<g>
	<path d="M436.17,84.558H332.875c9.062-3.347,21.282-6.949,30.28-6.638c8.293,0.311,15.227-6.187,15.516-14.466
		c0.29-8.279-6.188-15.226-14.466-15.515c-9.406-0.335-19.682,1.646-28.757,4.206c-0.604,0.158-1.298,0.34-2.074,0.543
		c-1.537,0.367-9.693,2.7-16.026,6.242c3.75-20.167-1.125-32.326-1.125-32.326c-20.774-52.747-64.745,1.155-79.463,26.902
		c-14.667-28.124-44.728-71.295-81.69-45.701c-20.114,13.192-19.932,31.021-11.611,48.084c-8.254-4.395-18.719-11.633-27.599-19.453
		c-6.21-5.483-15.689-4.894-21.172,1.316c-5.483,6.21-4.894,15.688,1.316,21.172c0.298,0.263,6.167,5.426,14.396,11.408
		c0.014,0.01,0.025,0.022,0.039,0.032c0.788,0.591,1.63,1.216,2.513,1.792c1.059,0.745,2.139,1.495,3.252,2.245
		c6.318,4.258,12.173,7.628,17.618,10.158H37.19c-8.284,0-15,6.716-15,15v125.096c0,8.284,6.716,15,15,15h15.248V458.36
		c0,8.284,6.716,15,15,15h338.484c8.284,0,15-6.716,15-15V239.654h15.248c8.284,0,15-6.716,15-15V99.558
		C451.17,91.274,444.455,84.558,436.17,84.558z M287.305,28.804c0.801-0.309,1.377,0.241,1.724,0.665
		c5.473,7.081-24.099,58.522-38.37,52.034C246.987,74.369,278.741,32.112,287.305,28.804z M181.868,26.222
		c20.649,5.832,34.887,40.907,40.862,58.335h-17.377C185.342,64.532,142.971,15.239,181.868,26.222z M390.922,443.359H283.178
		V268.783c0-8.284-6.716-15-15-15h-62.996c-8.284,0-15,6.716-15,15v174.576H82.438V239.654h308.484V443.359z M421.17,209.654
		h-15.248H67.438H52.19v-95.096h137.992v64.039c0,8.284,6.716,15,15,15h62.996c8.284,0,15-6.716,15-15v-64.039H421.17V209.654z"/>
</g>
<g>
</g>
<g>
</g>
<g>
</g>
<g>
</g>
<g>
</g>
<g>
</g>
<g>
</g>
<g>
</g>
<g>
</g>
<g>
</g>
<g>
</g>
<g>
</g>
<g>
</g>
<g>
</g>
<g>
</g>
</svg>
